<svg xmlns="http://www.w3.org/2000/svg" viewBox="0 0 900 520" width="900" height="520" role="img" aria-label="Logo construction and clear space">
  <defs>
    <linearGradient id="skillGradient" x1="60" y1="60" x2="420" y2="430" gradientUnits="userSpaceOnUse"><stop offset="0" stop-color="#346CFF"/><stop offset="0.55" stop-color="#39D0FF"/><stop offset="1" stop-color="#73F0C0"/></linearGradient>
  </defs>
  <rect width="900" height="520" rx="28" fill="#F5F7FB"/>
  <g transform="translate(76 64)">
    <rect x="0" y="0" width="368" height="368" rx="24" fill="#FFFFFF" stroke="#DDE6F2"/>
    <g opacity="0.4" stroke="#DDE6F2"><path d="M46 0V368M92 0V368M138 0V368M184 0V368M230 0V368M276 0V368M322 0V368M0 46H368M0 92H368M0 138H368M0 184H368M0 230H368M0 276H368M0 322H368"/></g>
    <g transform="translate(56 40)"><g>

  <defs>
    <linearGradient id="skillGradient" x1="40" y1="36" x2="206" y2="228" gradientUnits="userSpaceOnUse">
      <stop offset="0" stop-color="#346CFF"/>
      <stop offset="0.52" stop-color="#39D0FF"/>
      <stop offset="1" stop-color="#73F0C0"/>
    </linearGradient>
    <filter id="softShadow" x="-20%" y="-20%" width="140%" height="140%">
      <feDropShadow dx="0" dy="8" stdDeviation="10" flood-color="#0B1020" flood-opacity="0.14"/>
    </filter>
  </defs>

  <g filter="url(#softShadow)">
    <path d="M190 44H91C62 44 42 63 42 91v3c0 28 20 47 49 47h74c29 0 49 19 49 47v2c0 28-20 47-49 47H64" fill="none" stroke="url(#skillGradient)" stroke-width="36" stroke-linecap="round" stroke-linejoin="round"/>
    <path d="M190 44H91C62 44 42 63 42 91" fill="none" stroke="url(#skillGradient)" stroke-width="36" stroke-linecap="round" stroke-linejoin="round" opacity="0.92"/>
    <circle cx="190" cy="44" r="14" fill="#FFFFFF" stroke="#346CFF" stroke-width="7"/>
    <circle cx="74" cy="141" r="13" fill="#FFFFFF" stroke="#39D0FF" stroke-width="7"/>
    <circle cx="64" cy="237" r="14" fill="#FFFFFF" stroke="#73F0C0" stroke-width="7"/>
    <circle cx="214" cy="190" r="8" fill="#FFFFFF" stroke="#39D0FF" stroke-width="5"/>
  </g>

        <rect x="24" y="174" width="10" height="10" rx="2" fill="#39D0FF" opacity="0.95"/>
        <rect x="42" y="194" width="8" height="8" rx="2" fill="#39D0FF" opacity="0.75"/>
        <rect x="24" y="210" width="6" height="6" rx="1.5" fill="#39D0FF" opacity="0.55"/>
        <rect x="58" y="218" width="7" height="7" rx="1.5" fill="#39D0FF" opacity="0.55"/>

</g></g>
    <rect x="56" y="40" width="256" height="256" fill="none" stroke="#346CFF" stroke-dasharray="8 8"/>
    <text x="0" y="418" font-family="Noto Sans CJK SC, Inter, Arial" font-size="22" font-weight="700" fill="#0B1020">Clear space: 1 node radius minimum around the mark.</text>
    <text x="0" y="450" font-family="Noto Sans CJK SC, Inter, Arial" font-size="18" fill="#6B7280">最小留白: 标志外侧至少保留 1 个节点半径的空白。</text>
  </g>
  <g transform="translate(508 76)">
    <text x="0" y="0" font-family="Noto Sans CJK SC, Inter, Arial" font-size="32" font-weight="800" fill="#346CFF">Logo construction</text>
    <text x="0" y="52" font-family="Noto Sans CJK SC, Inter, Arial" font-size="20" fill="#0B1020">• Modular S path = skill flow</text>
    <text x="0" y="90" font-family="Noto Sans CJK SC, Inter, Arial" font-size="20" fill="#0B1020">• Nodes = plugin connection points</text>
    <text x="0" y="128" font-family="Noto Sans CJK SC, Inter, Arial" font-size="20" fill="#0B1020">• Gradient = sync across sources</text>
    <text x="0" y="186" font-family="Noto Sans CJK SC, Inter, Arial" font-size="32" font-weight="800" fill="#346CFF">Minimum sizes</text>
    <text x="0" y="238" font-family="Noto Sans CJK SC, Inter, Arial" font-size="20" fill="#0B1020">Digital mark: 24 px minimum</text>
    <text x="0" y="276" font-family="Noto Sans CJK SC, Inter, Arial" font-size="20" fill="#0B1020">Wordmark: 120 px minimum width</text>
    <text x="0" y="334" font-family="Noto Sans CJK SC, Inter, Arial" font-size="32" font-weight="800" fill="#346CFF">Usage principle</text>
    <text x="0" y="386" font-family="Noto Sans CJK SC, Inter, Arial" font-size="20" fill="#0B1020">Use full color on light surfaces;</text>
    <text x="0" y="424" font-family="Noto Sans CJK SC, Inter, Arial" font-size="20" fill="#0B1020">use monochrome where color is limited.</text>
  </g>
</svg>