<svg xmlns="http://www.w3.org/2000/svg" viewBox="0 0 560 178" width="560" height="178" role="img" aria-label="skills logo">
  <rect width="100%" height="100%" fill="none"/>
  <g transform="translate(0 0) scale(0.65625)">

  <defs>
    <linearGradient id="skillGradient" x1="40" y1="36" x2="206" y2="228" gradientUnits="userSpaceOnUse">
      <stop offset="0" stop-color="#346CFF"/>
      <stop offset="0.52" stop-color="#39D0FF"/>
      <stop offset="1" stop-color="#73F0C0"/>
    </linearGradient>
    <filter id="softShadow" x="-20%" y="-20%" width="140%" height="140%">
      <feDropShadow dx="0" dy="8" stdDeviation="10" flood-color="#0B1020" flood-opacity="0.14"/>
    </filter>
  </defs>

  <g filter="url(#softShadow)">
    <path d="M190 44H91C62 44 42 63 42 91v3c0 28 20 47 49 47h74c29 0 49 19 49 47v2c0 28-20 47-49 47H64" fill="none" stroke="url(#skillGradient)" stroke-width="36" stroke-linecap="round" stroke-linejoin="round"/>
    <path d="M190 44H91C62 44 42 63 42 91" fill="none" stroke="url(#skillGradient)" stroke-width="36" stroke-linecap="round" stroke-linejoin="round" opacity="0.92"/>
    <circle cx="190" cy="44" r="14" fill="#FFFFFF" stroke="#346CFF" stroke-width="7"/>
    <circle cx="74" cy="141" r="13" fill="#FFFFFF" stroke="#39D0FF" stroke-width="7"/>
    <circle cx="64" cy="237" r="14" fill="#FFFFFF" stroke="#73F0C0" stroke-width="7"/>
    <circle cx="214" cy="190" r="8" fill="#FFFFFF" stroke="#39D0FF" stroke-width="5"/>
  </g>

        <rect x="24" y="174" width="10" height="10" rx="2" fill="#39D0FF" opacity="0.95"/>
        <rect x="42" y="194" width="8" height="8" rx="2" fill="#39D0FF" opacity="0.75"/>
        <rect x="24" y="210" width="6" height="6" rx="1.5" fill="#39D0FF" opacity="0.55"/>
        <rect x="58" y="218" width="7" height="7" rx="1.5" fill="#39D0FF" opacity="0.55"/>

</g>
  <text x="182" y="116" font-family="Inter, Avenir Next, Noto Sans, Arial, sans-serif" font-size="86" font-weight="850" letter-spacing="-3" fill="#0B1020">skills</text>
</svg>