<svg xmlns="http://www.w3.org/2000/svg" viewBox="0 0 1200 420" width="1200" height="420">
  <rect width="1200" height="420" fill="#F5F7FB"/>
  <g fill="none" stroke-linecap="round">
    <path d="M80 220 C220 90, 360 110, 500 210 S780 340, 1120 150" stroke="#346CFF" stroke-width="8" opacity="0.75"/>
    <path d="M120 300 C300 180, 430 260, 600 150 S850 50, 1100 260" stroke="#39D0FF" stroke-width="5" opacity="0.7"/>
    <path d="M90 120 C250 210, 380 70, 530 120 S800 230, 1120 90" stroke="#73F0C0" stroke-width="5" opacity="0.75"/>
  </g>
  <g>
    <circle cx="80" cy="220" r="14" fill="#346CFF"/><circle cx="500" cy="210" r="12" fill="#346CFF"/><circle cx="1120" cy="150" r="14" fill="#346CFF"/>
    <circle cx="120" cy="300" r="11" fill="#39D0FF"/><circle cx="600" cy="150" r="11" fill="#39D0FF"/><circle cx="1100" cy="260" r="11" fill="#39D0FF"/>
    <circle cx="90" cy="120" r="10" fill="#73F0C0"/><circle cx="530" cy="120" r="10" fill="#73F0C0"/><circle cx="1120" cy="90" r="10" fill="#73F0C0"/>
  </g>
</svg>